<svg xmlns="http://www.w3.org/2000/svg" viewBox="0 0 224.83 224.76"><g id="Layer_2" data-name="Layer 2"><g id="Layer_2-2" data-name="Layer 2"><path d="M175.79,63.94c0,.33,0,.66,0,1s0,.5,0,.76c0-.29,0-.58,0-.88s0-.58,0-.87Z" fill="#fff"/><path d="M161.68,10a54.88,54.88,0,0,1,53.15,54.79,58.12,58.12,0,0,1-57.29,58.08l-22.13.3,14.84,16.41,46.06,50.92A14.51,14.51,0,1,1,174.79,210L98.47,125.6l-6.76-7.48c-.16-.17-.33-.38-.54-.64a14.5,14.5,0,0,1,11.3-23.6h54.28a29,29,0,0,0,29-27.74c0-.44,0-.88,0-1.33s0-.78,0-1.2A74.75,74.75,0,0,0,161.68,10M160,0H110.87a64.93,64.93,0,0,1,64.92,63.94c0,.29,0,.58,0,.87s0,.59,0,.88a19.09,19.09,0,0,1-19,18.19H102.47a24.51,24.51,0,0,0-19.09,39.88c.3.36.59.72.91,1.06l6.77,7.49,76.31,84.38a24.51,24.51,0,0,0,36.36-32.88l-46.06-50.92a70,70,0,0,0,8-.58,68.18,68.18,0,0,0,59.17-67.5A64.89,64.89,0,0,0,160,0Z" fill="#fff"/><path d="M110.87,10a55.07,55.07,0,0,1,48.46,29H24.51a14.51,14.51,0,0,1,0-29h86.36m0-10H24.51a24.51,24.51,0,0,0,0,49H160a15.82,15.82,0,0,1,15.77,14.92A64.93,64.93,0,0,0,110.87,0Z" fill="#fff"/></g></g></svg>