<svg xmlns="http://www.w3.org/2000/svg" viewBox="0 0 512.93 127"><g id="Layer_2" data-name="Layer 2"><g id="arrow"><path d="M272.34,38.79c3.3,0,10-6.39,10-16C282.31,11,272,0,256.63,0H232.39V88.83h33.22c17.64,0,27.94-13.45,27.94-27.06C293.55,47.94,282.31,38.79,272.34,38.79ZM250.15,17.23h7.7s7.83.32,7.69,7.4-7.78,7.55-7.78,7.55h-7.61Zm25.78,44.35c-.55,9.06-11,9.54-11,9.54H250.15v-19h15.39S276.49,52.51,275.93,61.58Z" fill="#fff"/><polygon points="38.54 0 17.74 0 0 17.72 17.74 17.76 38.54 17.75 38.54 88.84 56.31 88.84 56.31 17.74 68.48 17.74 86.21 0 38.54 0" fill="#fff"/><polygon points="177.06 62.06 151.76 25.58 134.03 0 134 0 134 31.14 134 88.81 151.76 88.81 151.76 56.75 166.26 77.65 173.97 88.77 180.16 88.77 187.87 77.65 202.33 56.8 202.33 88.84 220.09 88.84 220.09 31.19 220.09 0.02 202.33 25.63 177.06 62.06" fill="#fff"/><path d="M344.85,0a44.38,44.38,0,1,0,44.38,44.38A44.38,44.38,0,0,0,344.85,0Zm0,71.12a26.74,26.74,0,1,1,26.74-26.74A26.74,26.74,0,0,1,344.85,71.12Z" fill="#fff"/><polygon points="470.55 0 450.03 0 429.06 36.33 427.16 39.61 419.3 53.23 419.22 53.12 419.22 46.03 419.22 22.55 419.22 0 401.46 0 401.46 13.77 401.46 28.24 401.46 88.84 419.22 88.84 419.25 88.84 430.64 69.11 430.95 68.58 447.31 88.82 447.32 88.84 470.16 88.84 440.47 52.09 470.55 0" fill="#fff"/><polygon points="86.25 17.41 85.86 17.81 86.25 17.81 121.55 17.81 121.55 0.04 103.62 0.04 86.25 17.41" fill="#fff"/><polygon points="86.25 53.31 107.23 53.31 107.23 35.55 86.25 35.55 86.25 35.54 86.24 35.55 86.23 35.55 68.49 53.27 68.49 53.3 68.49 71.05 68.49 71.72 68.49 88.81 121.28 88.81 121.28 71.05 86.25 71.05 86.25 53.31" fill="#fff"/><polygon points="86.25 0.04 86.25 0 86.21 0.04 86.25 0.04" fill="#fff"/><path d="M454.8,49l0-.1.07-.12c.52-1.62,1-3.25,1.57-4.87q4.15-12.9,8.3-25.8l5.1-15.84c.24-.74.48-1.48.72-2.24l28.51,1.47c0,.12,0,.22-.05.31l-3.87,19.68-4,20.27a.63.63,0,0,0,.06.52l5.13,8.27,15.61,25.22c.26.41.51.82.77,1.25l-1.33.61L493.1,85.88l-6.28,2.86c-.16.07-.26.08-.36-.08a.83.83,0,0,0-.11-.15L471.89,70.37,456.4,51C455.87,50.29,455.33,49.63,454.8,49Z" fill="#ff931c"/><path d="M401.59,117.12A10.13,10.13,0,0,1,411.72,107a10.27,10.27,0,0,1,6.4,2.12l-2.72,4.06a5.36,5.36,0,0,0-3.63-1.37,5.19,5.19,0,1,0,3.73,8.93l3,3.81A10.23,10.23,0,0,1,412,127,10.11,10.11,0,0,1,401.59,117.12Z" fill="#fff"/><path d="M424.43,116.86a10.23,10.23,0,1,1,10.36,9.88A10.13,10.13,0,0,1,424.43,116.86Zm15.53-.18a5.31,5.31,0,1,0-5.23,5.25A5.25,5.25,0,0,0,440,116.68Z" fill="#fff"/><path d="M471.7,99.91l.29,25.78-4.47,0-.23-2a7.72,7.72,0,0,1-6.09,2.75c-5.91.07-9.39-5-9.44-9.87-.07-5.5,3.84-10.06,9.26-10.13a7.75,7.75,0,0,1,6,2.47l-.1-9Zm-4.61,16.45a5,5,0,0,0-5.22-5.1,5.19,5.19,0,1,0,.12,10.37A5,5,0,0,0,467.09,116.36Z" fill="#fff"/><path d="M498.28,117.92l-13.36.15a5.06,5.06,0,0,0,4.9,3.35,6.38,6.38,0,0,0,4.27-1.81l3.35,3.18a10.6,10.6,0,0,1-7.68,3.32,10,10,0,0,1-.25-20,9,9,0,0,1,9.2,9.15A7.31,7.31,0,0,1,498.28,117.92Zm-13.48-3.59,9-.11a4.19,4.19,0,0,0-4.27-3.42A4.93,4.93,0,0,0,484.8,114.33Z" fill="#fff"/><path d="M506.31,122.88a3.31,3.31,0,1,1,3.35,3.18A3.3,3.3,0,0,1,506.31,122.88Z" fill="#fff"/></g></g></svg>